<svg xmlns="http://www.w3.org/2000/svg" viewBox="0 0 457 485" role="img" aria-label="Logo" shape-rendering="geometricPrecision">
  <g transform="translate(0,485) scale(0.1,-0.1)" fill="#ff5aa5" stroke="none">
    <path
      d="M2030 4744 c-519 -48 -1053 -228 -1499 -504 -184 -114 -228 -177 -200 -279 32 -115 291 -859 307 -881 25 -35 99 -70 147 -70 22 0 129 22 238 50 373 94 656 136 1035 150 556 21 992 -25 1541 -161 107 -27 177 -39 201 -36 56 7 107 36 129 71 25 40 311 893 311 926 -1 34 -33 102 -61 129 -13 12 -76 54 -139 93 -311 192 -681 346 -1030 430 -243 58 -420 79 -690 83 -135 1 -265 1 -290 -1z m440 -194 c327 -23 614 -89 945 -217 271 -105 606 -291 613 -340 3 -19 -231 -749 -244 -762 -2 -3 -59 12 -127 32 -629 189 -1409 242 -2082 142 -212 -32 -546 -108 -708 -161 -43 -15 -81 -24 -84 -21 -3 3 -63 177 -134 387 -96 287 -126 387 -119 400 23 43 292 193 515 288 470 200 951 285 1425 252z"
    />
    <path
      d="M2140 4250 l0 -150 -155 0 -155 0 0 -140 0 -140 155 0 155 0 0 -130 0 -130 135 0 135 0 0 130 0 130 155 0 155 0 0 140 0 140 -155 0 -155 0 0 150 0 150 -135 0 -135 0 0 -150z"
    />
    <path
      d="M1535 3041 l-60 -6 -3 -157 -3 -158 -622 -2 -623 -3 -42 -28 c-23 -15 -51 -45 -62 -67 -20 -39 -20 -53 -18 -578 l3 -539 28 -36 c16 -21 46 -46 67 -57 38 -19 60 -20 655 -20 l615 0 0 -570 c0 -491 2 -576 15 -607 21 -50 42 -72 90 -94 38 -17 80 -19 690 -19 610 0 652 2 690 19 48 22 69 44 90 94 13 31 15 116 15 606 l0 571 643 2 643 3 43 28 c28 19 49 43 62 72 19 42 20 68 17 573 l-3 528 -27 41 c-16 24 -44 49 -70 62 -44 21 -53 21 -676 21 l-632 0 0 155 c0 116 -3 157 -12 159 -7 3 -48 7 -90 10 l-78 6 0 -255 0 -255 685 0 c672 0 685 0 705 -20 19 -19 20 -33 20 -468 0 -389 -2 -450 -16 -470 l-15 -22 -690 0 -689 0 0 -623 c0 -592 -1 -625 -18 -640 -17 -15 -73 -17 -599 -17 -549 0 -581 1 -596 18 -15 17 -17 76 -17 640 l0 622 -669 0 -670 0 -15 22 c-14 20 -16 82 -16 475 l0 452 22 15 c20 14 102 16 685 16 l663 0 0 255 0 255 -27 -2 c-16 -1 -55 -4 -88 -7z"
    />
  </g>
</svg>
